<svg width="100" height="111" viewBox="0 0 100 111" fill="none" xmlns="http://www.w3.org/2000/svg">
<path d="M56.9862 49.4077C56.5554 39.7847 55.9809 34.6141 50.2358 28.2945C42.9108 20.1078 40.1819 12.2083 46.2142 0C47.7941 8.18674 48.3686 15.5117 54.1137 19.9641C59.8588 24.4166 64.5985 36.4813 56.9862 49.4077ZM46.2142 49.4077C45.927 44.2371 45.6397 41.6518 42.4799 38.0611C38.602 33.7523 37.0221 29.5872 40.3255 22.9803C41.1873 27.4328 41.3309 31.3107 44.4907 33.6087C47.6505 35.9067 50.3794 42.5136 46.2142 49.4077ZM72.2107 94.7938H98.3508C99.9307 94.7938 100.505 95.9428 99.4998 97.2355C99.4998 97.2355 89.3023 110.306 75.2269 110.306H24.8138L0.540841 97.2355C-0.464548 95.9428 -0.0336668 94.7938 1.54623 94.7938H27.3991C23.8084 92.9267 18.4942 84.7399 18.4942 74.5424V52.9984H81.4028V54.7219C83.4136 52.9984 85.8553 52.1366 88.4406 52.1366C92.0312 52.1366 98.7817 55.8709 98.7817 62.3341C98.7817 71.6699 92.6057 75.1169 89.0151 77.5586C89.0151 77.5586 82.2646 82.8728 77.5249 89.0487C75.945 91.7776 74.0779 93.932 72.2107 94.7938ZM88.4406 56.0145C86.1425 56.0145 83.27 57.0199 81.4028 61.616V73.537C81.4028 75.1169 81.2592 76.9841 80.9719 78.564C84.1317 75.4042 87.866 73.2498 87.866 73.2498C90.1641 71.6699 94.7601 68.6537 94.7601 62.765C94.9038 58.5998 91.0258 56.0145 88.4406 56.0145ZM29.4099 57.738H25.3883V63.6268H29.4099V57.738ZM29.4099 67.0738H25.3883V76.6968C25.3883 76.6968 26.5373 89.6232 34.7241 93.5012C29.6971 87.6125 29.4099 80.862 29.4099 76.6968V67.0738Z" fill="url(#paint0_linear)"/>
<defs>
<linearGradient id="paint0_linear" x1="-18.2344" y1="55" x2="118.766" y2="55" gradientUnits="userSpaceOnUse">
<stop stop-color="#DA8CFF"/>
<stop offset="1" stop-color="#9A55FF"/>
</linearGradient>
</defs>
</svg>
